<svg xmlns="http://www.w3.org/2000/svg" viewBox="0 0 320 210" role="img" aria-label="Education resource allocation thumbnail">
  <rect width="320" height="210" rx="12" fill="#f4f7fb"/>
  <rect x="26" y="26" width="268" height="158" rx="10" fill="#fff" stroke="#c9d6e2"/>
  <g fill="none" stroke-width="3">
    <path d="M105 74c26-29 63-25 83 4 17 24 9 58-20 75-28 17-71 4-83-26-8-21 1-39 20-53Z" stroke="#174ea6"/>
    <path d="M122 86c14-16 39-14 52 4 11 16 5 39-14 49-18 10-45 3-53-16-6-14 1-26 15-37Z" stroke="#9c5f1d"/>
    <path d="M203 58l51 27-14 59-58 14" stroke="#2f6f62"/>
  </g>
  <g fill="#174ea6">
    <circle cx="106" cy="74" r="5"/>
    <circle cx="187" cy="78" r="5"/>
    <circle cx="168" cy="153" r="5"/>
    <circle cx="84" cy="127" r="5"/>
  </g>
  <g fill="#9c5f1d">
    <circle cx="122" cy="86" r="5"/>
    <circle cx="174" cy="90" r="5"/>
    <circle cx="160" cy="139" r="5"/>
    <circle cx="107" cy="123" r="5"/>
  </g>
  <g fill="#2f6f62">
    <circle cx="203" cy="58" r="5"/>
    <circle cx="254" cy="85" r="5"/>
    <circle cx="240" cy="144" r="5"/>
    <circle cx="182" cy="158" r="5"/>
  </g>
  <rect x="46" y="48" width="54" height="7" rx="3.5" fill="#76879a" opacity=".3"/>
</svg>
