<svg xmlns="http://www.w3.org/2000/svg" viewBox="0 0 320 210" role="img" aria-label="EdNet causal inference thumbnail">
  <rect width="320" height="210" rx="12" fill="#f4f7fb"/>
  <rect x="30" y="28" width="260" height="154" rx="10" fill="#fff" stroke="#c9d6e2"/>
  <path d="M56 148h220M56 148V54" stroke="#c9d6e2" stroke-width="3"/>
  <path d="M62 132c28-14 46-35 72-34 32 2 42 36 72 33 26-2 40-34 66-50" fill="none" stroke="#174ea6" stroke-width="4" stroke-linecap="round"/>
  <path d="M62 120c28-22 48-24 76-18 31 7 40 24 70 22 28-3 43-16 64-28" fill="none" stroke="#9c5f1d" stroke-width="4" stroke-linecap="round" opacity=".8"/>
  <circle cx="138" cy="99" r="9" fill="#edf5f2" stroke="#2f6f62" stroke-width="3"/>
  <circle cx="208" cy="130" r="9" fill="#f7ead8" stroke="#9c5f1d" stroke-width="3"/>
  <g fill="#76879a" opacity=".32">
    <rect x="72" y="58" width="44" height="7" rx="3.5"/>
    <rect x="72" y="74" width="72" height="7" rx="3.5"/>
    <rect x="72" y="90" width="50" height="7" rx="3.5"/>
  </g>
</svg>
