<svg xmlns="http://www.w3.org/2000/svg" viewBox="0 0 320 210" role="img" aria-label="Histy annotation interface thumbnail">
  <rect width="320" height="210" rx="12" fill="#f4f7fb"/>
  <rect x="24" y="24" width="272" height="162" rx="10" fill="#fff" stroke="#c9d6e2"/>
  <rect x="46" y="46" width="116" height="12" rx="6" fill="#174ea6" opacity=".16"/>
  <rect x="46" y="70" width="174" height="8" rx="4" fill="#76879a" opacity=".35"/>
  <rect x="46" y="88" width="146" height="8" rx="4" fill="#76879a" opacity=".25"/>
  <rect x="46" y="106" width="182" height="8" rx="4" fill="#e1a348" opacity=".55"/>
  <rect x="46" y="124" width="132" height="8" rx="4" fill="#76879a" opacity=".25"/>
  <path d="M238 72h26c13 0 24 11 24 24s-11 24-24 24h-5l-16 17v-17h-5c-13 0-24-11-24-24s11-24 24-24Z" fill="#edf5f2" stroke="#2f6f62" stroke-width="3"/>
  <circle cx="242" cy="96" r="4" fill="#2f6f62"/>
  <circle cx="254" cy="96" r="4" fill="#2f6f62"/>
  <circle cx="266" cy="96" r="4" fill="#2f6f62"/>
  <path d="M210 128l26-20 28 32" fill="none" stroke="#174ea6" stroke-width="4" stroke-linecap="round" stroke-linejoin="round"/>
  <rect x="46" y="152" width="190" height="8" rx="4" fill="#76879a" opacity=".18"/>
</svg>
