<svg xmlns="http://www.w3.org/2000/svg" viewBox="0 0 320 210" role="img" aria-label="Storyboard agent thumbnail">
  <rect width="320" height="210" rx="12" fill="#f4f7fb"/>
  <rect x="24" y="26" width="78" height="64" rx="8" fill="#fff" stroke="#c9d6e2"/>
  <rect x="121" y="26" width="78" height="64" rx="8" fill="#fff" stroke="#c9d6e2"/>
  <rect x="218" y="26" width="78" height="64" rx="8" fill="#fff" stroke="#c9d6e2"/>
  <rect x="24" y="120" width="78" height="64" rx="8" fill="#fff" stroke="#c9d6e2"/>
  <rect x="121" y="120" width="78" height="64" rx="8" fill="#fff" stroke="#c9d6e2"/>
  <rect x="218" y="120" width="78" height="64" rx="8" fill="#fff" stroke="#c9d6e2"/>
  <path d="M42 75l20-28 12 16 10-10 10 22" fill="none" stroke="#174ea6" stroke-width="4" stroke-linecap="round" stroke-linejoin="round"/>
  <path d="M139 72c17-26 29-26 43 0" fill="none" stroke="#9c5f1d" stroke-width="4" stroke-linecap="round"/>
  <path d="M237 72h40M237 54h40" stroke="#2f6f62" stroke-width="4" stroke-linecap="round"/>
  <path d="M46 145h34M46 160h42" stroke="#174ea6" stroke-width="4" stroke-linecap="round"/>
  <circle cx="160" cy="152" r="20" fill="#edf5f2" stroke="#2f6f62" stroke-width="4"/>
  <path d="M151 152h18M160 143v18" stroke="#2f6f62" stroke-width="4" stroke-linecap="round"/>
  <path d="M236 144l42 22M278 144l-42 22" stroke="#9c5f1d" stroke-width="4" stroke-linecap="round"/>
  <path d="M102 58h19M199 58h19M102 152h19M199 152h19" stroke="#76879a" stroke-width="3" stroke-linecap="round"/>
</svg>
