<svg xmlns="http://www.w3.org/2000/svg" viewBox="0 0 320 210" role="img" aria-label="Learning analytics value chain thumbnail">
  <rect width="320" height="210" rx="12" fill="#f4f7fb"/>
  <path d="M42 154h236" stroke="#c9d6e2" stroke-width="3"/>
  <g fill="#fff" stroke="#174ea6" stroke-width="3">
    <rect x="34" y="76" width="48" height="78" rx="8"/>
    <rect x="89" y="54" width="48" height="100" rx="8"/>
    <rect x="144" y="34" width="48" height="120" rx="8"/>
    <rect x="199" y="68" width="48" height="86" rx="8"/>
    <rect x="254" y="94" width="32" height="60" rx="8"/>
  </g>
  <g fill="#174ea6">
    <circle cx="58" cy="64" r="5"/>
    <circle cx="113" cy="42" r="5"/>
    <circle cx="168" cy="22" r="5"/>
    <circle cx="223" cy="56" r="5"/>
    <circle cx="270" cy="82" r="5"/>
  </g>
  <path d="M58 64l55-22 55-20 55 34 47 26" fill="none" stroke="#9c5f1d" stroke-width="4" stroke-linecap="round"/>
  <g fill="#76879a" opacity=".42">
    <rect x="47" y="96" width="22" height="6" rx="3"/>
    <rect x="102" y="77" width="22" height="6" rx="3"/>
    <rect x="157" y="59" width="22" height="6" rx="3"/>
    <rect x="212" y="91" width="22" height="6" rx="3"/>
    <rect x="263" y="116" width="14" height="6" rx="3"/>
  </g>
</svg>
